<svg xmlns="http://www.w3.org/2000/svg" viewBox="0 0 92 92">
  <path style="fill:#469be8" d="M21.7 58.9 5.9 85.1l3.3 3.4h76.1l.9-5.3-8.9-14.6-16.9-.1-19.7-7.4-18.2-2.2" />
  <path
    d="M89.1 80.8 60.7 33.5V7.4h3.7c2 0 3.7-1.6 3.7-3.7S66.4 0 64.4 0H27.6c-2 0-3.7 1.6-3.7 3.7s1.6 3.7 3.7 3.7h3.7v26.2L2.9 80.8c-2.1 3.5-1 8 2.5 10.1 1.1.7 2.4 1 3.8 1h73.6c4.1 0 7.4-3.3 7.4-7.4 0-1.3-.4-2.6-1-3.8Zm-51-44.3c.3-.6.5-1.2.5-1.9V7.4h14.7v27.2c0 .7.2 1.3.5 1.9l17.6 29.3c-5.5 1.1-13.4.6-23.8-4.6-7.3-3.7-14.3-5.7-20.8-5.9l11.3-18.8ZM9.2 84.6l13.1-21.9c6.6-.8 13.9.9 22 4.9 8.7 4.4 16.1 5.9 22.1 5.9 3 0 6.1-.4 9-1.2l7.4 12.3H9.2Z"
    style="fill:#012553" />
</svg>