<svg xmlns="http://www.w3.org/2000/svg" viewBox="0 0 500.8 92">
  <path style="fill:#469be8" d="M19.8 58.9 4 85.1l3.3 3.4h76.1l.9-5.3-8.9-14.6-16.9-.1-19.7-7.4-18.1-2.2" />
  <path
    d="M87.2 80.8 58.8 33.5V7.4h3.7c2 0 3.7-1.6 3.7-3.7S64.6 0 62.5 0H25.7c-2 0-3.7 1.6-3.7 3.7s1.6 3.7 3.7 3.7h3.7v26.2L1 80.8c-2.1 3.5-1 8 2.5 10.1 1.1.7 2.4 1 3.8 1h73.6c4.1 0 7.4-3.3 7.4-7.4 0-1.3-.4-2.6-1-3.8Zm-51-44.4c.3-.6.5-1.2.5-1.9V7.4h14.7v27.2c0 .7.2 1.3.5 1.9l17.6 29.3c-5.5 1.1-13.4.6-23.8-4.6-7.3-3.7-14.3-5.7-20.8-5.9l11.3-18.8ZM7.3 84.6l13.1-21.9c6.6-.8 13.9.9 22 4.9 8.7 4.4 16.1 5.9 22.1 5.9 3 0 6.1-.4 9-1.2l7.4 12.3H7.3Z"
    style="fill:#012553" />
  <path
    d="M110.6 66.4c-3.2 0-6.1-.5-8.7-1.6-2.5-1.1-4.7-2.6-6.5-4.5-1.8-1.9-3.1-4.2-4-6.9-.9-2.7-1.4-5.6-1.4-8.7s.5-6 1.4-8.6c1-2.6 2.3-4.9 4.1-6.8s4-3.4 6.5-4.4c2.5-1 5.3-1.6 8.5-1.6s6.4.6 9.1 1.9c2.7 1.3 5 3.1 6.8 5.6 1.8 2.4 2.8 5.4 3.2 8.9h-6.1c-.4-2.4-1.3-4.5-2.4-6.1-1.2-1.6-2.7-2.9-4.5-3.7s-3.8-1.3-6-1.3-5.5.7-7.6 2.1c-2.1 1.4-3.8 3.3-4.9 5.7-1.1 2.4-1.7 5.2-1.7 8.3s.3 4.6.9 6.6 1.5 3.7 2.7 5.2c1.2 1.5 2.7 2.6 4.5 3.4 1.8.8 3.8 1.2 6.1 1.2s4.5-.4 6.3-1.3c1.7-.9 3.1-2 4.2-3.6 1.1-1.5 1.8-3.3 2.2-5.3h6.1c-.4 2.3-1 4.4-2 6.3-1 1.9-2.3 3.5-3.9 4.9-1.6 1.3-3.5 2.4-5.6 3.1-2.2.7-4.6 1.1-7.4 1.1ZM137.1 65.8V20.5h5.9v45.4h-5.9ZM165.4 66.4c-3.3 0-6.1-.7-8.4-2-2.3-1.3-4.1-3.2-5.3-5.5-1.2-2.4-1.8-5.1-1.8-8.1s.6-5.8 1.7-8.1c1.2-2.3 2.9-4.2 5.1-5.5 2.3-1.3 5-2 8.2-2s5.8.7 8 2 3.8 3.2 5 5.5 1.7 5.1 1.7 8.1v1.7h-25.7v-4.3h21.4l-1.1 2c0-2.1-.4-3.9-1.1-5.4-.7-1.5-1.8-2.7-3.2-3.6-1.4-.9-3-1.3-4.8-1.3s-3.3.4-4.7 1.2c-1.4.8-2.5 2-3.3 3.6-.8 1.6-1.2 3.6-1.2 6.1s.4 4.4 1.2 6.1c.8 1.6 2 2.9 3.4 3.7 1.4.8 3.1 1.2 4.9 1.2s2.8-.2 3.9-.7c1.1-.5 2.1-1.1 2.8-2s1.2-1.8 1.5-2.8h5.8c-.4 2-1.2 3.7-2.4 5.2s-2.8 2.8-4.8 3.6c-2 .9-4.2 1.3-6.8 1.3ZM198.7 66.3c-2 0-3.9-.4-5.5-1.1-1.7-.7-3.2-1.8-4.4-3.2-1.2-1.4-2.2-3-2.8-4.9-.7-1.9-1-4-1-6.4s.6-5.9 1.7-8.2c1.2-2.3 2.8-4.2 4.8-5.5 2.1-1.3 4.4-2 7.2-2s3.9.4 5.5 1.1c1.6.7 3 1.8 4.1 3.2 1.1 1.4 2 3.1 2.6 4.9.6 1.9.9 4 .9 6.3s-.5 5.8-1.6 8.2c-1.1 2.3-2.6 4.2-4.5 5.5-2 1.3-4.3 2-7 2Zm1.2-4.7c1.8 0 3.4-.5 4.7-1.4 1.4-.9 2.4-2.2 3.2-3.8.8-1.6 1.1-3.5 1.1-5.7s-.2-3.2-.7-4.5c-.4-1.3-1.1-2.4-1.9-3.4-.8-.9-1.8-1.7-2.8-2.2-1.1-.5-2.3-.8-3.7-.8s-3.4.4-4.7 1.3c-1.4.9-2.4 2.1-3.2 3.8-.7 1.6-1.1 3.6-1.1 5.8s.4 4.1 1.1 5.7c.7 1.6 1.8 2.9 3.2 3.8 1.4.9 2.9 1.4 4.7 1.4Zm9.2 4.2v-13l1-2.3-1-4.6V35.5h5.7v30.2h-5.7ZM223.7 65.8V35.6h5.7v15H228c0-3.2.6-6 1.5-8.3.9-2.3 2.2-4 3.9-5.2 1.7-1.2 3.8-1.8 6.2-1.8h1c.4 0 .7 0 1 .2v5.7c-1.9 0-3.6.1-5.1.5-1.5.3-2.7.9-3.8 1.7-1 .8-1.8 2-2.3 3.5-.5 1.5-.8 3.4-.8 5.7v13.3h-5.9ZM259.1 66.3c-2 0-3.9-.4-5.5-1.1-1.7-.7-3.2-1.8-4.4-3.2-1.2-1.4-2.2-3-2.8-4.9-.7-1.9-1-4-1-6.4s.6-5.9 1.7-8.2c1.2-2.3 2.8-4.2 4.8-5.5 2.1-1.3 4.4-2 7.2-2s3.9.4 5.5 1.1c1.6.7 3 1.8 4.1 3.2 1.1 1.4 2 3.1 2.6 4.9.6 1.9.9 4 .9 6.3s-.5 5.8-1.6 8.2c-1.1 2.3-2.6 4.2-4.5 5.5-2 1.3-4.3 2-7 2Zm1.3-4.7c1.8 0 3.4-.5 4.7-1.4 1.4-.9 2.4-2.2 3.2-3.8.8-1.6 1.1-3.5 1.1-5.7s-.2-3.2-.7-4.5c-.4-1.3-1.1-2.4-1.9-3.4-.8-.9-1.8-1.7-2.8-2.2-1.1-.5-2.3-.8-3.7-.8s-3.4.4-4.7 1.3c-1.4.9-2.4 2.1-3.2 3.8-.7 1.6-1.1 3.6-1.1 5.8s.4 4.1 1.1 5.7c.7 1.6 1.8 2.9 3.2 3.8 1.4.9 2.9 1.4 4.7 1.4Zm9.1 4.2v-13l1-2.3-1-4.6V35.5h5.7v30.2h-5.7ZM284.1 65.8V35.6h5.7v13.9h-1.6c0-3 .5-5.6 1.4-7.7.9-2.1 2.3-3.8 4.1-4.9 1.8-1.1 3.9-1.7 6.5-1.7s3.5.3 4.9.8c1.4.5 2.6 1.4 3.5 2.4.9 1.1 1.6 2.4 2.1 4s.7 3.3.7 5.3v18.2h-5.9V49.6c0-1.8-.2-3.4-.5-4.6-.3-1.2-.8-2.2-1.5-2.9-.6-.7-1.4-1.2-2.3-1.5-.9-.3-2-.5-3.1-.5s-2.8.4-4 1.1c-1.2.8-2.2 2-2.9 3.8-.7 1.7-1.1 4.1-1.1 7v13.9h-5.9ZM332.5 66.3c-3.2 0-5.9-.7-8.1-2-2.2-1.3-3.9-3.2-5-5.5s-1.7-5-1.7-8.1.6-5.8 1.7-8.1c1.2-2.3 2.8-4.2 5-5.5 2.2-1.3 4.9-2 8-2s4.6.4 6.6 1.3 3.6 2.1 4.8 3.7c1.3 1.6 2 3.5 2.4 5.6h-5.8c-.3-1.2-.8-2.2-1.6-3.1-.8-.9-1.7-1.5-2.8-2-1.1-.5-2.3-.7-3.6-.7-1.9 0-3.5.5-4.8 1.4-1.3.9-2.3 2.2-2.9 3.8-.7 1.6-1 3.5-1 5.6s.3 3.9.9 5.6c.6 1.6 1.6 2.9 2.9 3.8 1.3.9 2.9 1.4 4.9 1.4s3.8-.6 5.2-1.7c1.3-1.1 2.2-2.7 2.7-4.8h5.8c-.3 2.3-1.1 4.3-2.2 6-1.2 1.7-2.7 3-4.6 3.9-1.9.9-4.2 1.3-6.8 1.3ZM366.2 66.4c-3.3 0-6.1-.7-8.4-2-2.3-1.3-4.1-3.2-5.3-5.5-1.2-2.4-1.8-5.1-1.8-8.1s.6-5.8 1.7-8.1c1.2-2.3 2.9-4.2 5.1-5.5 2.3-1.3 5-2 8.2-2s5.8.7 8 2 3.8 3.2 5 5.5 1.7 5.1 1.7 8.1v1.7h-25.7v-4.3h21.4l-1.1 2c0-2.1-.4-3.9-1.1-5.4-.7-1.5-1.8-2.7-3.2-3.6-1.4-.9-3-1.3-4.8-1.3s-3.3.4-4.7 1.2c-1.4.8-2.5 2-3.3 3.6-.8 1.6-1.2 3.6-1.2 6.1s.4 4.4 1.2 6.1c.8 1.6 2 2.9 3.4 3.7 1.4.8 3.1 1.2 4.9 1.2s2.8-.2 3.9-.7c1.1-.5 2.1-1.1 2.8-2s1.2-1.8 1.5-2.8h5.8c-.4 2-1.2 3.7-2.4 5.2s-2.8 2.8-4.8 3.6c-2 .9-4.2 1.3-6.8 1.3ZM401.7 65.8v-42h6.1v37.8l-.8-1h18.6v5.2h-23.9ZM443.2 66.3c-2 0-3.9-.4-5.5-1.1-1.7-.7-3.2-1.8-4.4-3.2-1.2-1.4-2.2-3-2.8-4.9-.7-1.9-1-4-1-6.4s.6-5.9 1.7-8.2c1.2-2.3 2.8-4.2 4.8-5.5 2.1-1.3 4.4-2 7.2-2s3.9.4 5.5 1.1c1.6.7 3 1.8 4.1 3.2 1.1 1.4 2 3.1 2.6 4.9.6 1.9.9 4 .9 6.3s-.5 5.8-1.6 8.2c-1.1 2.3-2.6 4.2-4.5 5.5-2 1.3-4.3 2-7 2Zm1.3-4.7c1.8 0 3.4-.5 4.7-1.4 1.4-.9 2.4-2.2 3.2-3.8.8-1.6 1.1-3.5 1.1-5.7s-.2-3.2-.7-4.5c-.4-1.3-1.1-2.4-1.9-3.4-.8-.9-1.8-1.7-2.8-2.2-1.1-.5-2.3-.8-3.7-.8s-3.4.4-4.7 1.3c-1.4.9-2.4 2.1-3.2 3.8-.7 1.6-1.1 3.6-1.1 5.8s.4 4.1 1.1 5.7c.7 1.6 1.8 2.9 3.2 3.8 1.4.9 2.9 1.4 4.7 1.4Zm9.2 4.2v-13l1-2.3-1-4.6V35.5h5.7v30.2h-5.7ZM468.3 65.8V20.5h5.9v25.6l-1.5 4.4 1.3 5.7v9.6h-5.7Zm16.2.5c-2 0-3.8-.4-5.5-1.1-1.6-.7-3-1.8-4.1-3.2s-2-3-2.6-4.9c-.6-1.9-.9-4-.9-6.4s.5-5.9 1.6-8.2c1.1-2.3 2.6-4.2 4.6-5.5 2-1.3 4.3-2 7-2s3.9.4 5.5 1.1c1.7.7 3.1 1.8 4.3 3.2 1.2 1.4 2.2 3 2.9 5s1 4 1 6.4-.6 5.8-1.7 8.2c-1.2 2.3-2.8 4.2-4.8 5.5-2.1 1.3-4.5 2-7.2 2Zm-1.3-4.7c1.8 0 3.4-.5 4.7-1.4 1.4-.9 2.4-2.2 3.1-3.8.7-1.6 1.1-3.5 1.1-5.7s-.4-4.1-1.1-5.8a9 9 0 0 0-3.1-3.8c-1.4-.9-2.9-1.3-4.7-1.3s-3.4.4-4.7 1.3c-1.3.9-2.4 2.1-3.2 3.8-.8 1.6-1.2 3.6-1.2 5.8s.2 3.1.7 4.5c.4 1.3 1.1 2.5 1.9 3.5.8 1 1.8 1.7 2.9 2.2 1.1.5 2.3.8 3.7.8Z" />
</svg>